/* XPM */
static char *ezquake_xpm__[] = {
/* columns rows colors chars-per-pixel */
"48 48 242 2",
"   c #000000",
".  c #090703",
"X  c #0B0A06",
"o  c #0E0D09",
"O  c #100C04",
"+  c #120F09",
"@  c #131007",
"#  c #1B1206",
"$  c #14130B",
"%  c #181408",
"&  c #1E1A0C",
"*  c #161410",
"=  c #181712",
"-  c #1C1A12",
";  c #231D0C",
":  c #231E12",
">  c #2A210C",
",  c #34280C",
"<  c #252415",
"1  c #2B2614",
"2  c #2F2A17",
"3  c #262519",
"4  c #2A261B",
"5  c #2C2C1C",
"6  c #322C15",
"7  c #312B1B",
"8  c #3D3314",
"9  c #34321E",
"0  c #322F23",
"q  c #343122",
"w  c #3B3524",
"e  c #3F3D26",
"r  c #423411",
"t  c #4F3C10",
"y  c #443B1C",
"u  c #453A23",
"i  c #4D421C",
"p  c #5F4A17",
"a  c #51461D",
"s  c #6F581E",
"d  c #75591C",
"f  c #4F4522",
"g  c #434429",
"h  c #4C432C",
"j  c #4C4A2C",
"k  c #5C4F22",
"l  c #564A2B",
"z  c #565228",
"x  c #4C4731",
"c  c #4E4934",
"v  c #4B4C3B",
"b  c #524C34",
"n  c #515230",
"m  c #59533C",
"M  c #5D5C39",
"N  c #655C2B",
"B  c #6F5F29",
"V  c #675631",
"C  c #6B5E3D",
"Z  c #6F642D",
"A  c #74642A",
"S  c #7E652C",
"D  c #6F6337",
"F  c #796537",
"G  c #7D6E32",
"H  c #74633C",
"J  c #76683C",
"K  c #7C6F3B",
"L  c #5D5C44",
"P  c #676344",
"I  c #6A6345",
"U  c #7F6E46",
"Y  c #726F4D",
"T  c #7A724E",
"R  c #7A7A4A",
"E  c #6D6D52",
"W  c #7B7C60",
"Q  c #87671D",
"!  c #82692E",
"~  c #886D28",
"^  c #987A2E",
"/  c #8C7834",
"(  c #897438",
")  c #907633",
"_  c #947D32",
"`  c #847544",
"'  c #8C7749",
"]  c #837B4E",
"[  c #807752",
"{  c #847955",
"}  c #897D50",
"|  c #BA8D27",
" . c #B1882E",
".. c #A78835",
"X. c #A18B3A",
"o. c #C7992D",
"O. c #E5B13D",
"+. c #F3B831",
"@. c #F8BE3A",
"#. c #FEC234",
"$. c #FFCB38",
"%. c #838451",
"&. c #898051",
"*. c #8B8C52",
"=. c #88865E",
"-. c #8B8C5B",
";. c #928757",
":. c #948A53",
">. c #9E8850",
",. c #949453",
"<. c #9A975A",
"1. c #BB9B42",
"2. c #A08C54",
"3. c #AF955B",
"4. c #B09353",
"5. c #A9A14E",
"6. c #BDA243",
"7. c #B0A44E",
"8. c #818261",
"9. c #8B8A64",
"0. c #908760",
"q. c #938D64",
"w. c #9F9363",
"e. c #989A6A",
"r. c #979875",
"t. c #9C9C72",
"y. c #AD9E6D",
"u. c #A6A564",
"i. c #ABAC69",
"p. c #B8A765",
"a. c #B1A768",
"s. c #B1B062",
"d. c #A2A37B",
"f. c #B7AD78",
"g. c #BEB173",
"h. c #BCBD74",
"j. c #C19D50",
"k. c #CAAA42",
"l. c #C4A54B",
"z. c #D0B348",
"x. c #C8A95F",
"c. c #D1B355",
"v. c #DBBA56",
"b. c #DCB55F",
"n. c #E3B245",
"m. c #E8BC45",
"M. c #E5BD49",
"N. c #D1AD60",
"B. c #D6B160",
"V. c #D4BF6D",
"C. c #CEB673",
"Z. c #C2B478",
"A. c #C5BE7D",
"S. c #EBBF60",
"D. c #F3C043",
"F. c #FAC340",
"G. c #FFCF47",
"H. c #F8C54F",
"J. c #F7CD4E",
"K. c #FBCB4A",
"L. c #FFD54E",
"P. c #EEC453",
"I. c #F9C656",
"U. c #F8C956",
"Y. c #F8CA5A",
"T. c #E9D15E",
"R. c #F5D356",
"E. c #FDD352",
"W. c #FEDA57",
"Q. c #F6D55C",
"!. c #FFD65C",
"~. c #F7D95E",
"^. c #FEDA5B",
"/. c #FFE15F",
"(. c #DFC362",
"). c #D7D36A",
"_. c #C7C976",
"`. c #D4D57E",
"'. c #FACA60",
"]. c #FCD061",
"[. c #F7DD63",
"{. c #FFDB64",
"}. c #FFD86D",
"|. c #EDD472",
" X c #EAD77D",
".X c #FFDD74",
"XX c #FEDE7E",
"oX c #FEE266",
"OX c #FEE46D",
"+X c #FFF06E",
"@X c #E7E170",
"#X c #FDE372",
"$X c #F6E870",
"%X c #FFEF72",
"&X c #F5E17D",
"*X c #FEE27B",
"=X c #FBEA7C",
"-X c #FFF177",
";X c #FFF67B",
":X c #FFF87D",
">X c #B8B98D",
",X c #C4BD85",
"<X c #D1BE80",
"1X c #D1C885",
"2X c #D8CF81",
"3X c #D4C889",
"4X c #DECD88",
"5X c #CED083",
"6X c #DBD28C",
"7X c #C9C990",
"8X c #EBD084",
"9X c #ECD588",
"0X c #ECD98D",
"qX c #FADB86",
"wX c #E7DF9A",
"eX c #FDEE84",
"rX c #FCE78C",
"tX c #FEEE8C",
"yX c #FFF384",
"uX c #FFFE85",
"iX c #FDF48D",
"pX c #FFF88C",
"aX c #E6E39D",
"sX c #EBE599",
"dX c #F2E497",
"fX c #FBE693",
"gX c #F5E893",
"hX c #FFEE93",
"jX c #FFF291",
"kX c #FDFB94",
"lX c #F5F79F",
"zX c #FFF59B",
"xX c #FFFB9A",
"cX c #FDF4A5",
"vX c #FFFFA3",
"bX c #F1F3A8",
"nX c #FFFFAB",
"mX c #F0F3B3",
"MX c #FFFFB3",
"NX c #FFFFBC",
"BX c #FFFFC1",
"VX c None",
/* pixels */
"VXVXVXVXVXVXVXVXVXVXVXVXVXVXVXVXVXVXVXVXVXVXVXVXVXVXVXVXVXVXVXVXVXVXVXVXVXVXVXVXVXVXVXVXVXVXVXVX",
"VXVXVXVXVXVXVXVXVXVXVXVXVXVXVXVXVXVXVXVXVXVXVXVXVXVXVXVXVXVXVXVXVXVXVXVXVXVXVXVXVXVXVXVXVXVXVXVX",
"VXVXVXVXVXVXVXVXVXVXVXVXVXVXVXVXVXVXVXVXVXVXVXVXVXVXVXVXVXVXVXVXVXVXVXVXVXVXVXVXVXVXVXVXVXVXVXVX",
"VXVXVXVXVXVXVXVXVXVXVXVXVXVXVXVXVXVXVXVXVXVXVXVXVXVXVXVXVXVXVXVXVXVXVXVXVXVXVXVXVXVXVXVXVXVXVXVX",
"VXVXVXVXVXVXVXVXVXVXVXVXVXVXVXVXVXVXVXVXVXVXVXVXVXVXVXVXVXVXVXVXVXVXVXVXVXVXVXVXVXVXVXVXVXVXVXVX",
"VXVXVXVXVXVXVXVXVXVXVXVXVXVXVXVXVXVXVXVXVXVXVXVXVXVXVXVXVXVXVXVXVXVXVXVXVXVXVXVXVXVXVXVXVXVXVXVX",
"VXVXVXVXVXVXVXVXVXVXVXVXVXVXVXVXVXVXVXVXVXVXVXVXVXVXVXVXVXVX            VXVXVXVXVXVXVXVXVXVXVXVX",
"VXVXVXVXVXVXVXVXVXVXVXVXVXVXVXVXVXVXVXVXVXVXVXVXVXVXVX  = v W r.d.d.t.8.v o   VXVXVXVXVXVXVXVXVX",
"VXVXVXVXVXVXVXVXVXVXVXVXVXVXVXVXVXVXVXVXVXVXVXVXVX  v >XmXNXBXNXNXMXnXMXNXbXe.4   VXVXVXVXVXVXVX",
"VXVXVXVXVXVXVXVXVXVXVXVXVXVXVXVXVXVXVXVXVXVX  X     E BXnXkX_.*.n 9 < 5 g %.5XlX-.X VXVXVXVXVXVX",
"VXVXVXVXVXVXVXVXVXVXVXVXVXVXVXVXVXVXVXVXVX  L 7X$ VX$ 5X,.5       VXVXVXVX    5 i.h.: VXVXVXVXVX",
"VXVXVXVXVXVXVXVXVXVXVXVXVXVXVXVXVXVXVXVX  9.MXnXM     $   VXVXVXVXVXVXVXVXVXVXVX  j u.3 VXVXVXVX",
"VXVXVXVXVXVXVXVXVXVXVXVXVXVXVXVXVXVXVX  t.MXkXpXs.  VXVXVXVXVXVXVXVXVXVXVXVXVXVXVX  $ R - VXVXVX",
"VXVXVXVXVXVXVXVXVXVXVXVXVXVXVXVXVXVX  9.MXiXuX).1   VXVXVXVXVXVXVXVXVXVXVXVXVXVXVXVXVX$ M o VXVX",
"VXVXVXVXVXVXVXVXVXVXVXVXVXVXVXVXVX  L MXpXuX).&   VXVXVXVXVXVXVXVXVXVXVXVXVXVXVXVXVXVXVX$ u   VX",
"VXVXVXVXVXVXVXVXVXVXVXVXVXVXVXVXVX* aXkXyX@X<   VXVXVXVXVXVXVXVXVXVXVXVXVXVXVXVXVXVXVXVXVX< < VX",
"VXVXVXVXVXVXVXVXVXVXVXVXVXVXVXVX  9.vX=X;Xz   VXVXVXVXVXVXVXVXVXVXVXVXVXVXVXVXVXVXVXVXVX  j <.  ",
"VXVXVXVXVXVXVXVXVXVXVXVXVXVXVXVX= sXiX:X5.  VXVXVXVXVXVXVXVXVXVXVXVXVXVXVXVXVXVXVXVXVX  P 2X9   ",
"VXVXVXVXVXVXVXVXVXVXVXVXVXVXVX  Y xX=X$X6   VXVXVXVXVXVXVXVXVXVXVXVXVXVXVXVXVXVXVXVX  q.6X<   VX",
"VXVXVXVXVXVXVXVXVXVXVXVXVXVXVX  _.iX-X5.  VXVXVXVXVXVXVXVXVXVXVXVXVXVXVXVXVXVXVXVX* ,X3X$   VXVX",
"VXVXVXVXVXVXVXVXVXVXVXVXVXVXVX< dX=X%XN   VXVXVXVXVX  VXVXVXVXVXVXVXVXVXVXVXVX  q aXA.o   VXVXVX",
"VXVXVXVXVXVXVXVXVXVXVXVXVXVXVXb jX#X[.1 VXVXVXVXVXVX    VXVXVXVXVXVXVXVXVXVX  m cXa..   VXVXVXVX",
"VXVXVXVXVXVXVXVXVXVXVXVXVX    &.eXOXT.$ VXVXVXVXVXo w   VXVXVXVXVXVXVXVXVX  0.nX:.  VXVXVXVXVXVX",
"VXVXVXVXVXVX    . * 5 c P T ;. X#X[.[.Z 2 9 q q x g.]   VXVXVXVXVXVXVXVX$ f.vX`   VXVXVXVXVXVXVX",
"VX    - b T y.g.4X0XfXjXjXhXeX.X[.~.~.oX#X*XrXrXhXpXK   VXVXVXVXVXVX  4 3XxXD   VXVXVXVXVXVXVXVX",
"VX    - b } p.V.|..X#X#XOXOXoXQ.Q.R.^./.oXOXOXOXOX+XG   VXVXVXVXVX  m dXtXl   VXVXVXVXVXVXVXVXVX",
"VXVXVXVXVX      $ 6 y k A A / R.R.W.z.a i i a i i X.S   VXVXVXVX  { zX&Xf   VXVXVXVXVXVXVXVXVXVX",
"VXVXVXVXVXVXVXVXVXVX          6.W.W._               @   VXVXVX+ y.zX|.y   VXVXVXVXVXVXVXVXVXVXVX",
"VXVXVXVXVXVXVXVXVXVXVXVXVXVX  / ^.E.k.  VXVXVXVXVXVX    VX  4 <XjX(.6   VXVXVXVXVXVXVXVXVXVXVXVX",
"VXVXVXVXVXVXVXVXVXVXVXVXVXVXVXy {.J.E.8 VXVXVXVXVXVX      j 9XeXc.;   VXVXVXVXVXVXVXVXVXVXVXVXVX",
"VXVXVXVXVXVXVXVXVXVXVXVXVXVXVXX v.J.L._   VXVXVXVXVXVX  J qX*Xl.#   VXVXVXVXVXVXVXVXVXVXVXVXVXVX",
"VXVXVXVXVXVXVXVXVXVXVXVXVXVXVX  ( W.K.M.$ VXVXVXVXVXo 2.#XoX1.O   VXVXVXVXVXVXVXVXVXVXVXVXVXVXVX",
"VXVXVXVXVXVXVXVXVXVXVXVXVXVXVXVX; P.G.G.8   VXVX  4 C.*X^.... VXVXVXVXVXVXVXVXVXVXVXVXVXVXVXVXVX",
"VXVXVXVXVXVXVXVXVXVXVXVXVXVXVXVX  ) m.r   VXVX  h 8X.X!.^   VXVXVXVXVXVXVXVXVXVXVXVXVXVXVXVX  VX",
"VXVXVXVXVXVXVXVXVXVXVXVXVXVXVXVXVX$ &   VXVX  C qX}.E.~   VXVXVXVXVXVXVXVXVXVXVXVXVXVXVXVX    VX",
"VXVXVXVXVXVXVXVXVXVXVXVXVXVXVXVXVXVXVXVXVXX >.XXY.K.B   VXVXVXVXVXVXVXVXVXVXVXVXVXVXVXVX    VXVX",
"VXVXVXVXVXVXVXVXVXVXVXVXVXVXVXVXVXVXVX  1 x..XU.m.p   VXVXVXVXVXVXVXVXVXVXVXVXVXVXVXVX      VXVX",
"VXVXVXVXVXVXVXVXVXVXVXVXVXVXVXVXVXVXVX  ` #XH.F.o.. VXVXVXVXVXVXVXVXVXVXVXVXVXVXVXVXo X   VXVXVX",
"VXVXVXVXVXVXVXVXVXVXVXVXVXVXVXVXVXVXVXVX  ! F.#.+.Q O   VXVXVXVXVXVXVXVXVXVXVXVX. w 4   VXVXVXVX",
"VXVXVXVXVXVXVXVXVXVXVXVXVXVXVXVXVXVXVXVXVX  , | @.$.O.! :     VXVXVXVXVXVX  . h U 7   VXVXVXVXVX",
"VXVXVXVXVXVXVXVXVXVXVXVXVXVXVXVXVXVXVXVXVXVX    t | @.E.Y.j.F u - + + : l ' 3.H X   VXVXVXVXVXVX",
"VXVXVXVXVXVXVXVXVXVXVXVXVXVXVXVXVXVXVXVXVXVXVXVX    > d  .n.I.'.S.b.B.N.4.V +   VXVXVXVXVXVXVXVX",
"VXVXVXVXVXVXVXVXVXVXVXVXVXVXVXVXVXVXVXVXVXVXVXVXVXVXVX    . # ; > ; ; .     VXVXVXVXVXVXVXVXVXVX",
"VXVXVXVXVXVXVXVXVXVXVXVXVXVXVXVXVXVXVXVXVXVXVXVXVXVXVXVXVXVXVXVXVXVXVXVXVXVXVXVXVXVXVXVXVXVXVXVX",
"VXVXVXVXVXVXVXVXVXVXVXVXVXVXVXVXVXVXVXVXVXVXVXVXVXVXVXVXVXVXVXVXVXVXVXVXVXVXVXVXVXVXVXVXVXVXVXVX",
"VXVXVXVXVXVXVXVXVXVXVXVXVXVXVXVXVXVXVXVXVXVXVXVXVXVXVXVXVXVXVXVXVXVXVXVXVXVXVXVXVXVXVXVXVXVXVXVX",
"VXVXVXVXVXVXVXVXVXVXVXVXVXVXVXVXVXVXVXVXVXVXVXVXVXVXVXVXVXVXVXVXVXVXVXVXVXVXVXVXVXVXVXVXVXVXVXVX",
"VXVXVXVXVXVXVXVXVXVXVXVXVXVXVXVXVXVXVXVXVXVXVXVXVXVXVXVXVXVXVXVXVXVXVXVXVXVXVXVXVXVXVXVXVXVXVXVX"
};
